<svg xmlns="http://www.w3.org/2000/svg" xmlns:xlink="http://www.w3.org/1999/xlink"
    width="48" height="48" id="shop"><defs><linearGradient id="b" x1="1073.403" x2="1097.116" y1="516.451" y2="544.308" gradientTransform="translate(-1643.872 211.343) scale(1.53785)" gradientUnits="userSpaceOnUse" xlink:href="#a"></linearGradient><linearGradient id="a"><stop offset="0" stop-color="#16ff6a"></stop><stop offset="1" stop-color="#0090a5"></stop></linearGradient></defs><g transform="translate(0 -1004.362)"><rect width="48" height="48" y="1004.362" fill="url(#b)" rx="10.144" ry="10.144"></rect><path style="line-height:normal;text-indent:0;text-align:start;text-decoration-line:none;text-transform:none;block-progression:tb" fill="#fff" d="M13.281 1014.362H35.75l3.25 8.594v.406c0 .563-.437 1-1 1a.952.952 0 0 1-.906-.594 1.1 1.1 0 0 1-.094-.406v-.03a.491.491 0 0 0 0-.063.493.493 0 0 0 0-.062.464.464 0 0 0-.031-.03.493.493 0 0 0 0-.063.464.464 0 0 0-.032-.03.5.5 0 0 0-.156-.157h-.031a.487.487 0 0 0-.063-.031.509.509 0 0 0-.468.062.476.476 0 0 0-.032.03.476.476 0 0 0-.03.032.547.547 0 0 0-.063.062.526.526 0 0 0-.032.062.476.476 0 0 0-.03.03.493.493 0 0 0 0 .063v.03a.526.526 0 0 0-.032.063v.03c0 .423-.233.789-.594.938-.12.05-.265.062-.406.062a.952.952 0 0 1-.906-.593 1.1 1.1 0 0 1-.094-.5.493.493 0 0 0 0-.062.464.464 0 0 0-.031-.03.493.493 0 0 0 0-.063.464.464 0 0 0-.032-.03.5.5 0 0 0-.156-.157h-.031a.5.5 0 0 0-.531.032.476.476 0 0 0-.031.031.476.476 0 0 0-.032.031.547.547 0 0 0-.062.062.526.526 0 0 0-.032.062.476.476 0 0 0-.03.031.493.493 0 0 0 0 .062v.031a.526.526 0 0 0-.032.062v.031c0 .422-.233.788-.594.938-.12.05-.265.062-.406.062a.952.952 0 0 1-.906-.594 1.1 1.1 0 0 1-.094-.5.493.493 0 0 0 0-.061.464.464 0 0 0-.031-.031.493.493 0 0 0 0-.062.464.464 0 0 0-.032-.031.5.5 0 0 0-.156-.157h-.031a.5.5 0 0 0-.531.032.476.476 0 0 0-.032.031.476.476 0 0 0-.03.031.547.547 0 0 0-.063.062.526.526 0 0 0-.032.062.476.476 0 0 0-.03.031.493.493 0 0 0 0 .062v.031a.526.526 0 0 0-.032.062v.031c0 .422-.233.788-.594.938-.12.05-.265.062-.406.062a.952.952 0 0 1-.906-.594 1.1 1.1 0 0 1-.094-.5.493.493 0 0 0 0-.061.464.464 0 0 0-.031-.031.493.493 0 0 0 0-.062.464.464 0 0 0-.032-.031.5.5 0 0 0-.156-.156h-.031a.5.5 0 0 0-.531.032.476.476 0 0 0-.032.03.476.476 0 0 0-.03.032.547.547 0 0 0-.063.062.526.526 0 0 0-.032.062.476.476 0 0 0-.03.03.493.493 0 0 0 0 .063v.03a.526.526 0 0 0-.032.063v.03c0 .423-.233.789-.594.938-.032.01-.063.018-.093.031-.097.03-.206.031-.313.031a.952.952 0 0 1-.906-.594 1.1 1.1 0 0 1-.094-.499.493.493 0 0 0 0-.062.464.464 0 0 0-.031-.031.493.493 0 0 0 0-.062.464.464 0 0 0-.032-.031.5.5 0 0 0-.156-.156h-.031a.5.5 0 0 0-.531.032.476.476 0 0 0-.032.03.476.476 0 0 0-.03.032.547.547 0 0 0-.063.062.526.526 0 0 0-.032.062.476.476 0 0 0-.03.03.493.493 0 0 0 0 .063v.03a.526.526 0 0 0-.032.063v.03c0 .423-.233.789-.594.938-.12.05-.265.062-.406.062a.952.952 0 0 1-.906-.594 1.1 1.1 0 0 1-.094-.499.493.493 0 0 0 0-.062.464.464 0 0 0-.031-.03.493.493 0 0 0 0-.063.464.464 0 0 0-.032-.03.5.5 0 0 0-.156-.157h-.031a.5.5 0 0 0-.531.032.476.476 0 0 0-.032.03.476.476 0 0 0-.03.032.548.548 0 0 0-.063.062.526.526 0 0 0-.032.062.476.476 0 0 0-.03.03.493.493 0 0 0 0 .063v.03a.526.526 0 0 0-.032.063v.03c0 .423-.233.789-.594.938-.12.05-.265.062-.406.062a.952.952 0 0 1-.906-.593 1.1 1.1 0 0 1-.094-.5.493.493 0 0 0 0-.062.464.464 0 0 0-.031-.03.493.493 0 0 0 0-.063.464.464 0 0 0-.032-.03.5.5 0 0 0-.156-.157h-.031a.5.5 0 0 0-.531.032.476.476 0 0 0-.032.031.476.476 0 0 0-.03.031.548.548 0 0 0-.063.062.526.526 0 0 0-.032.062.476.476 0 0 0-.03.031.493.493 0 0 0 0 .062v.031a.526.526 0 0 0-.032.062v.031c0 .422-.233.788-.594.938-.12.05-.265.062-.406.062a.952.952 0 0 1-.906-.594 1.1 1.1 0 0 1-.094-.5.493.493 0 0 0 0-.061.464.464 0 0 0-.031-.031.493.493 0 0 0 0-.062.464.464 0 0 0-.031-.031.5.5 0 0 0-.157-.157h-.031a.5.5 0 0 0-.531.032.476.476 0 0 0-.031.031.476.476 0 0 0-.032.031.548.548 0 0 0-.062.062.526.526 0 0 0-.031.062.476.476 0 0 0-.032.031.493.493 0 0 0 0 .062v.031a.526.526 0 0 0-.031.062v.031c0 .422-.233.788-.594.938-.12.05-.265.062-.406.062a.952.952 0 0 1-.906-.594 1.1 1.1 0 0 1-.094-.406v-.031a.493.493 0 0 0-.125-.343h-.031v-.031h-.031a.524.524 0 0 0-.157-.094h-.062a.447.447 0 0 0-.094-.031.504.504 0 0 0-.406.218v.031a.476.476 0 0 0-.031.031.526.526 0 0 0-.032.062.491.491 0 0 0 0 .062.526.526 0 0 0-.031.062.491.491 0 0 0 0 .062c0 .422-.233.788-.594.938-.12.05-.265.062-.406.062a.952.952 0 0 1-.906-.594 1.01 1.01 0 0 1-.094-.397v-.406zm2.219 10.313c.03.034.062.062.094.094.362.362.856.593 1.406.593.593 0 1.133-.273 1.5-.687.03.034.062.062.094.094.362.362.856.594 1.406.594.593 0 1.133-.274 1.5-.688.03.034.062.062.094.094.362.363.856.594 1.406.594.593 0 1.133-.274 1.5-.688.03.034.062.062.094.094.362.363.856.594 1.406.594h.031v14H13v-14.281c.3.18.627.281 1 .281.593 0 1.133-.274 1.5-.688zm12 0c.03.034.062.062.094.094.362.362.856.593 1.406.593.593 0 1.133-.273 1.5-.687.03.034.062.062.094.094.362.362.856.594 1.406.594.593 0 1.133-.274 1.5-.688.03.034.062.062.094.094.362.363.856.594 1.406.594.363 0 .705-.11 1-.281v15.28h-1v-10.03l-.5.03h-6a.5.5 0 0 0-.5.5v9.5h-.969v-15.28c.177-.107.333-.253.469-.407zm-10.938 2.469-2 4 .907.437 2-4zm2 2-2.5 5 .907.437 2.5-5zM29 1031.362h5v9h-5zm1 3v2h1v-2zm-20 6h16v2H10v-1.562zm27 0h2v2h-2v-1.375a.503.503 0 0 0 0-.125zm-9.969 1H36v1h-8.969z" color="#000" ></path></g></svg>